<mxfile host="app.diagrams.net" agent="Mozilla/5.0 (Windows NT 10.0; Win64; x64) AppleWebKit/537.36 (KHTML, like Gecko) Chrome/136.0.0.0 Safari/537.36" version="27.0.3">
  <diagram name="Page-1" id="b520641d-4fe3-3701-9064-5fc419738815">
    <mxGraphModel dx="1489" dy="753" grid="1" gridSize="10" guides="1" tooltips="1" connect="1" arrows="1" fold="1" page="1" pageScale="1" pageWidth="1100" pageHeight="850" background="none" math="0" shadow="0">
      <root>
        <mxCell id="0" />
        <mxCell id="1" parent="0" />
        <mxCell id="WV8q9Jxa56bayiCrqlP--1" value="&lt;font style=&quot;font-size: 19px;&quot;&gt;Expense Management&lt;/font&gt;" style="rounded=0;whiteSpace=wrap;html=1;fillColor=#b1ddf0;strokeColor=#10739e;" vertex="1" parent="1">
          <mxGeometry x="405" y="110" width="195" height="60" as="geometry" />
        </mxCell>
        <mxCell id="WV8q9Jxa56bayiCrqlP--2" value="&lt;font style=&quot;font-size: 19px;&quot;&gt;User&lt;/font&gt;&lt;span style=&quot;color: rgba(0, 0, 0, 0); font-family: monospace; font-size: 0px; text-align: start; text-wrap-mode: nowrap;&quot;&gt;%3CmxGraphModel%3E%3Croot%3E%3CmxCell%20id%3D%220%22%2F%3E%3CmxCell%20id%3D%221%22%20parent%3D%220%22%2F%3E%3CmxCell%20id%3D%222%22%20value%3D%22%26lt%3Bfont%20style%3D%26quot%3Bfont-size%3A%2019px%3B%26quot%3B%26gt%3BExpense%20Tracker%20System%26lt%3B%2Ffont%26gt%3B%22%20style%3D%22rounded%3D0%3BwhiteSpace%3Dwrap%3Bhtml%3D1%3B%22%20vertex%3D%221%22%20parent%3D%221%22%3E%3CmxGeometry%20x%3D%22453%22%20y%3D%22210%22%20width%3D%22195%22%20height%3D%2290%22%20as%3D%22geometry%22%2F%3E%3C%2FmxCell%3E%3C%2Froot%3E%3C%2FmxGraphModel%3E&lt;/span&gt;" style="rounded=0;whiteSpace=wrap;html=1;fillColor=#dae8fc;strokeColor=#6c8ebf;gradientColor=#7ea6e0;" vertex="1" parent="1">
          <mxGeometry x="50" y="215" width="160" height="55" as="geometry" />
        </mxCell>
        <mxCell id="WV8q9Jxa56bayiCrqlP--5" value="" style="endArrow=classic;html=1;rounded=0;exitX=1.011;exitY=0.16;exitDx=0;exitDy=0;exitPerimeter=0;entryX=0;entryY=0.25;entryDx=0;entryDy=0;" edge="1" parent="1" source="WV8q9Jxa56bayiCrqlP--2" target="WV8q9Jxa56bayiCrqlP--1">
          <mxGeometry width="50" height="50" relative="1" as="geometry">
            <mxPoint x="530" y="190" as="sourcePoint" />
            <mxPoint x="450" y="230" as="targetPoint" />
            <Array as="points">
              <mxPoint x="240" y="140" />
            </Array>
          </mxGeometry>
        </mxCell>
        <mxCell id="WV8q9Jxa56bayiCrqlP--16" value="&lt;span style=&quot;font-size: 19px;&quot;&gt;Budget Control&lt;/span&gt;" style="rounded=0;whiteSpace=wrap;html=1;fillColor=#b1ddf0;strokeColor=#10739e;" vertex="1" parent="1">
          <mxGeometry x="377.5" y="334" width="195" height="40" as="geometry" />
        </mxCell>
        <mxCell id="WV8q9Jxa56bayiCrqlP--17" value="&lt;span style=&quot;font-size: 19px;&quot;&gt;Notifications&lt;/span&gt;" style="rounded=0;whiteSpace=wrap;html=1;fillColor=#b1ddf0;strokeColor=#10739e;" vertex="1" parent="1">
          <mxGeometry x="250.5" y="610" width="195" height="40" as="geometry" />
        </mxCell>
        <mxCell id="WV8q9Jxa56bayiCrqlP--18" value="&lt;span style=&quot;font-size: 19px;&quot;&gt;Reporting&lt;/span&gt;" style="rounded=0;whiteSpace=wrap;html=1;fillColor=#b1ddf0;strokeColor=#10739e;" vertex="1" parent="1">
          <mxGeometry x="247.5" y="425" width="195" height="50" as="geometry" />
        </mxCell>
        <mxCell id="WV8q9Jxa56bayiCrqlP--19" value="Add/Edit Expenses" style="text;html=1;align=center;verticalAlign=middle;whiteSpace=wrap;rounded=0;fontSize=14;" vertex="1" parent="1">
          <mxGeometry x="237.5" y="100" width="140" height="30" as="geometry" />
        </mxCell>
        <mxCell id="WV8q9Jxa56bayiCrqlP--23" value="Expense DB" style="shape=internalStorage;whiteSpace=wrap;html=1;backgroundOutline=1;fontSize=18;fillColor=#e6d0de;gradientColor=#d5739d;strokeColor=#996185;fontStyle=1" vertex="1" parent="1">
          <mxGeometry x="840" y="120" width="180" height="60" as="geometry" />
        </mxCell>
        <mxCell id="WV8q9Jxa56bayiCrqlP--24" value="Budget DB" style="shape=internalStorage;whiteSpace=wrap;html=1;backgroundOutline=1;fontSize=18;fillColor=#e6d0de;gradientColor=#d5739d;strokeColor=#996185;fontStyle=1" vertex="1" parent="1">
          <mxGeometry x="850" y="250" width="180" height="60" as="geometry" />
        </mxCell>
        <mxCell id="WV8q9Jxa56bayiCrqlP--25" value="Category DB" style="shape=internalStorage;whiteSpace=wrap;html=1;backgroundOutline=1;fontSize=18;fillColor=#e6d0de;gradientColor=#d5739d;strokeColor=#996185;fontStyle=1" vertex="1" parent="1">
          <mxGeometry x="850" y="390" width="180" height="60" as="geometry" />
        </mxCell>
        <mxCell id="WV8q9Jxa56bayiCrqlP--26" value="" style="endArrow=classic;html=1;rounded=0;entryX=0.121;entryY=0.039;entryDx=0;entryDy=0;entryPerimeter=0;exitX=1;exitY=0.75;exitDx=0;exitDy=0;" edge="1" parent="1" source="WV8q9Jxa56bayiCrqlP--2" target="WV8q9Jxa56bayiCrqlP--16">
          <mxGeometry width="50" height="50" relative="1" as="geometry">
            <mxPoint x="162" y="394" as="sourcePoint" />
            <mxPoint x="355" y="295" as="targetPoint" />
            <Array as="points">
              <mxPoint x="300" y="280" />
            </Array>
          </mxGeometry>
        </mxCell>
        <mxCell id="WV8q9Jxa56bayiCrqlP--27" value="Set Budget" style="text;html=1;align=center;verticalAlign=middle;whiteSpace=wrap;rounded=0;fontSize=14;rotation=10;" vertex="1" parent="1">
          <mxGeometry x="237.5" y="250" width="140" height="30" as="geometry" />
        </mxCell>
        <mxCell id="WV8q9Jxa56bayiCrqlP--30" value="" style="endArrow=classic;html=1;rounded=0;entryX=0.617;entryY=0.982;entryDx=0;entryDy=0;exitX=0;exitY=0.5;exitDx=0;exitDy=0;entryPerimeter=0;" edge="1" parent="1" source="WV8q9Jxa56bayiCrqlP--18" target="WV8q9Jxa56bayiCrqlP--2">
          <mxGeometry width="50" height="50" relative="1" as="geometry">
            <mxPoint x="490" y="310" as="sourcePoint" />
            <mxPoint x="294" y="302" as="targetPoint" />
            <Array as="points" />
          </mxGeometry>
        </mxCell>
        <mxCell id="WV8q9Jxa56bayiCrqlP--31" value="Generated Reports" style="text;html=1;align=center;verticalAlign=middle;whiteSpace=wrap;rounded=0;fontSize=14;rotation=60;" vertex="1" parent="1">
          <mxGeometry x="110.5" y="344" width="140" height="30" as="geometry" />
        </mxCell>
        <mxCell id="WV8q9Jxa56bayiCrqlP--34" value="" style="endArrow=classic;html=1;rounded=0;entryX=0.5;entryY=0;entryDx=0;entryDy=0;exitX=0.379;exitY=1.031;exitDx=0;exitDy=0;exitPerimeter=0;" edge="1" parent="1" source="WV8q9Jxa56bayiCrqlP--1" target="WV8q9Jxa56bayiCrqlP--16">
          <mxGeometry width="50" height="50" relative="1" as="geometry">
            <mxPoint x="220" y="266" as="sourcePoint" />
            <mxPoint x="411" y="322" as="targetPoint" />
            <Array as="points" />
          </mxGeometry>
        </mxCell>
        <mxCell id="WV8q9Jxa56bayiCrqlP--35" value="Spending Updates" style="text;html=1;align=center;verticalAlign=middle;whiteSpace=wrap;rounded=0;fontSize=14;rotation=90;" vertex="1" parent="1">
          <mxGeometry x="430" y="231.5" width="140" height="30" as="geometry" />
        </mxCell>
        <mxCell id="WV8q9Jxa56bayiCrqlP--37" value="" style="endArrow=classic;html=1;rounded=0;exitX=0.379;exitY=1.031;exitDx=0;exitDy=0;exitPerimeter=0;" edge="1" parent="1" target="WV8q9Jxa56bayiCrqlP--17">
          <mxGeometry width="50" height="50" relative="1" as="geometry">
            <mxPoint x="509" y="382" as="sourcePoint" />
            <mxPoint x="470" y="640" as="targetPoint" />
            <Array as="points">
              <mxPoint x="509" y="540" />
              <mxPoint x="510" y="640" />
            </Array>
          </mxGeometry>
        </mxCell>
        <mxCell id="WV8q9Jxa56bayiCrqlP--38" value="Threshold Alters" style="text;html=1;align=center;verticalAlign=middle;whiteSpace=wrap;rounded=0;fontSize=14;rotation=90;" vertex="1" parent="1">
          <mxGeometry x="452" y="520" width="140" height="30" as="geometry" />
        </mxCell>
        <mxCell id="WV8q9Jxa56bayiCrqlP--39" value="" style="endArrow=classic;html=1;rounded=0;entryX=0;entryY=0.5;entryDx=0;entryDy=0;exitX=1;exitY=0.5;exitDx=0;exitDy=0;" edge="1" parent="1">
          <mxGeometry width="50" height="50" relative="1" as="geometry">
            <mxPoint x="600" y="130.9999999999999" as="sourcePoint" />
            <mxPoint x="840" y="140.9999999999999" as="targetPoint" />
            <Array as="points" />
          </mxGeometry>
        </mxCell>
        <mxCell id="WV8q9Jxa56bayiCrqlP--40" value="Store Transactions" style="text;html=1;align=center;verticalAlign=middle;whiteSpace=wrap;rounded=0;fontSize=14;rotation=0;" vertex="1" parent="1">
          <mxGeometry x="650" y="110" width="140" height="30" as="geometry" />
        </mxCell>
        <mxCell id="WV8q9Jxa56bayiCrqlP--41" value="" style="endArrow=classic;html=1;rounded=0;entryX=1;entryY=0.75;entryDx=0;entryDy=0;exitX=0;exitY=0.75;exitDx=0;exitDy=0;" edge="1" parent="1" source="WV8q9Jxa56bayiCrqlP--23" target="WV8q9Jxa56bayiCrqlP--1">
          <mxGeometry width="50" height="50" relative="1" as="geometry">
            <mxPoint x="610" y="150" as="sourcePoint" />
            <mxPoint x="850" y="160" as="targetPoint" />
            <Array as="points" />
          </mxGeometry>
        </mxCell>
        <mxCell id="WV8q9Jxa56bayiCrqlP--43" value="Read Expenses" style="text;html=1;align=center;verticalAlign=middle;whiteSpace=wrap;rounded=0;fontSize=14;rotation=0;" vertex="1" parent="1">
          <mxGeometry x="650" y="160" width="140" height="30" as="geometry" />
        </mxCell>
        <mxCell id="WV8q9Jxa56bayiCrqlP--44" value="" style="endArrow=classic;html=1;rounded=0;entryX=1;entryY=0.5;entryDx=0;entryDy=0;exitX=0.5;exitY=1;exitDx=0;exitDy=0;" edge="1" parent="1" source="WV8q9Jxa56bayiCrqlP--23" target="WV8q9Jxa56bayiCrqlP--18">
          <mxGeometry width="50" height="50" relative="1" as="geometry">
            <mxPoint x="840" y="190" as="sourcePoint" />
            <mxPoint x="676" y="466" as="targetPoint" />
            <Array as="points">
              <mxPoint x="640" y="240" />
              <mxPoint x="640" y="450" />
            </Array>
          </mxGeometry>
        </mxCell>
        <mxCell id="WV8q9Jxa56bayiCrqlP--45" value="Expense History" style="text;html=1;align=center;verticalAlign=middle;whiteSpace=wrap;rounded=0;fontSize=14;rotation=90;" vertex="1" parent="1">
          <mxGeometry x="592" y="334" width="140" height="30" as="geometry" />
        </mxCell>
        <mxCell id="WV8q9Jxa56bayiCrqlP--47" value="" style="endArrow=classic;startArrow=classic;html=1;rounded=0;exitX=1;exitY=0.5;exitDx=0;exitDy=0;entryX=0.596;entryY=0.021;entryDx=0;entryDy=0;entryPerimeter=0;" edge="1" parent="1" source="WV8q9Jxa56bayiCrqlP--25" target="WV8q9Jxa56bayiCrqlP--1">
          <mxGeometry width="50" height="50" relative="1" as="geometry">
            <mxPoint x="620" y="410" as="sourcePoint" />
            <mxPoint x="480" y="37.714320591517854" as="targetPoint" />
            <Array as="points">
              <mxPoint x="1070" y="420" />
              <mxPoint x="1060" y="40" />
              <mxPoint x="520" y="38" />
            </Array>
          </mxGeometry>
        </mxCell>
      </root>
    </mxGraphModel>
  </diagram>
</mxfile>
